<svg xmlns="http://www.w3.org/2000/svg" width="33" height="33" viewBox="0 0 33 33">
  <g id="change-boxed" transform="translate(0.5 0.5)">
    <path id="Path_44" data-name="Path 44" d="M16,0A16,16,0,1,1,0,16,16,16,0,0,1,16,0Z" fill="#fff" stroke="#647280" stroke-width="1"/>
    <g id="Group_42" data-name="Group 42" transform="translate(4 4)">
      <circle id="Ellipse_2" data-name="Ellipse 2" cx="12.5" cy="12.5" r="12.5" transform="translate(-0.5 -0.5)" fill="#fff"/>
      <g id="Group_41" data-name="Group 41" transform="translate(7 5)">
        <path id="Path_42" data-name="Path 42" d="M5,1.91V0L2.5,2.545,5,5.091V3.18A3.8,3.8,0,0,1,8.75,7a4.159,4.159,0,0,1-.438,1.782l.938.954A5.757,5.757,0,0,0,10,7,5.06,5.06,0,0,0,5,1.91Zm0,8.908A3.8,3.8,0,0,1,1.25,7a4.159,4.159,0,0,1,.438-1.782L.75,4.264A5.757,5.757,0,0,0,0,7a5.06,5.06,0,0,0,5,5.09V14l2.5-2.545L5,8.909v1.91Z" fill="#647280"/>
        <g id="Group_40" data-name="Group 40">
          <path id="Path_43" data-name="Path 43" d="M-7-5H17V19H-7Z" fill="none" fill-rule="evenodd"/>
        </g>
      </g>
    </g>
  </g>
</svg>
