<svg id="log-in" xmlns="http://www.w3.org/2000/svg" width="32" height="32" viewBox="0 0 32 32">
  <path id="Path_151" data-name="Path 151" d="M26,9V23a3,3,0,0,1-3,3H11a3,3,0,0,1-3-3V20a1,1,0,0,1,2,0v3a1,1,0,0,0,1,1H23a1,1,0,0,0,1-1V9a1,1,0,0,0-1-1H11a1,1,0,0,0-1,1v3a1,1,0,0,1-2,0V9a3,3,0,0,1,3-3H23A3,3,0,0,1,26,9ZM14.29,19.29a1,1,0,1,0,1.42,1.42l4-4a1,1,0,0,0,0-1.42l-4-4a1,1,0,1,0-1.42,1.42L16.59,15H7a1,1,0,1,0,0,2h9.59Z" fill="#647280"/>
  <path id="Path_152" data-name="Path 152" d="M0,0H32V32H0Z" fill="none"/>
</svg>
